<?xml version="1.0" encoding="utf-8"?>
<!-- Generator: Adobe Illustrator 26.5.0, SVG Export Plug-In . SVG Version: 6.00 Build 0)  -->
<svg version="1.1" id="Laag_1" xmlns="http://www.w3.org/2000/svg" xmlns:xlink="http://www.w3.org/1999/xlink" x="0px" y="0px"
	 viewBox="0 0 105.3 88.6" style="enable-background:new 0 0 105.3 88.6;" xml:space="preserve">
<style type="text/css">
	.st0{fill:#FFFFFF;}
</style>
<g>
	<path class="st0" d="M15.6,40c0-4.5-0.2-9,0-13.5c0.4-9.6,6.2-16.4,15.7-17c10.3-0.6,20.6-0.6,30.9,0c9.2,0.6,15.2,7.4,15.4,16.6
		c0.3,9.3,0.3,18.7,0,28c-0.3,9.5-6.4,16.2-15.9,16.8c-10.1,0.6-20.3,0.6-30.4,0C21.9,70.3,16,63.5,15.6,54
		C15.4,49.3,15.6,44.6,15.6,40z M46.4,14.3c-5.1,0.3-10.3,0.2-15.4,1c-5.9,0.9-9.1,4.2-9.3,10c-0.4,9.8-0.4,19.6,0,29.4
		c0.2,5.9,3.3,9.8,9.1,10.1c10.6,0.6,21.3,0.6,31.9,0c5.6-0.3,8.8-4.1,9-9.7c0.3-10,0.4-20,0-29.9c-0.2-5.8-3.4-9.1-9.3-10
		C57.1,14.6,51.7,14.6,46.4,14.3z"/>
	<path class="st0" d="M46.6,24.1c8.7,0,15.9,7,16.1,15.7c0.2,8.9-7.1,16.3-16,16.4c-8.7,0.1-16-7.1-16.1-15.7
		C30.4,31.6,37.7,24.2,46.6,24.1z M56.9,40.4c0.1-5.8-4.6-10.6-10.3-10.5c-5.6,0-10,4.5-10.1,10.2c-0.1,5.9,4.5,10.6,10.3,10.6
		C52.3,50.5,56.8,45.9,56.9,40.4z"/>
	<path class="st0" d="M65.8,21.2c1.5,1.2,1.5,3.4-0.1,4.5c-1,0.7-1.8,1.2-2.5,1.1c-1.2-0.1-3.4-2.3-3.3-3.2c0.3-1.5,2-3.5,3.4-3.7
		C64,19.8,64.7,20.4,65.8,21.2z"/>
</g>
</svg>
