<?xml version="1.0" encoding="UTF-8"?><svg id="Laag_1" xmlns="http://www.w3.org/2000/svg" viewBox="0 0 90.47 90.04"><defs><style>.cls-1{fill:#fff;}</style></defs><path class="cls-1" d="M0,41.08c.46-1.84,.98-3.67,1.38-5.52C5.98,14.05,24.89-.6,47.3,.02c21.09,.58,39.32,16.84,42.63,38.04,3.83,24.54-13.23,47.82-37.73,51.48C27.61,93.21,4.67,76.35,.91,51.88c-.15-.96-.6-1.87-.91-2.8,0-2.67,0-5.33,0-8Zm84.57,3.87c-.02-21.65-17.76-39.39-39.27-39.27C23.8,5.81,6.21,23.41,6.1,44.89c-.11,21.56,17.57,39.24,39.26,39.26,21.7,.02,39.23-17.5,39.22-39.21Z"/><path class="cls-1" d="M59.91,75.22c-1.08-1.83-2.15-3.67-3.25-5.48-1.05-1.73-2.14-3.44-3.55-5.71-2.72,4.91-.71,9.81-2.47,14.8-.98-1.18-1.92-1.9-2.3-2.84-3.13-7.87-3.9-15.96-1.6-24.18,.75-2.69,2.7-4.27,5.58-4.7,.88-.13,2.09-.62,2.38-1.28,.25-.59-.39-1.79-.96-2.45-1.49-1.74-2.09-3.55-1.06-5.95,.58,.66,1.06,1.27,1.6,1.81,1.86,1.88,3.88,3.73,6.75,2.63,2.72-1.04,3.58-3.65,3.9-6.24,.69-5.47-1.87-9.1-7.22-10.62-.55-.16-1.11-.3-1.66-.45,.97-3.58,3.86-5.35,8.03-5,4.03,.35,7.08,3.1,7.38,6.84,.56,6.91-2.23,12.45-7.23,17.02-.8,.73-1.74,1.29-2.58,1.96-2.15,1.7-2.25,2.55-.25,4.32,1.34,1.2,1.84,2.5,1.22,4.21-.23,.62-.31,1.32-.62,1.89-2.4,4.26-2.33,8.7-1.25,13.32,.44,1.88,.33,3.88,.47,5.83-.44,.09-.87,.18-1.31,.27Z"/><path class="cls-1" d="M36.05,45.21c.74-2.85,1.38-5.15,1.92-7.48,.39-1.71,1.25-2.82,3.04-3.19,2.85-.58,5.67-1.27,8.51-1.86,.42-.09,.9,.11,2.17,.31-1.29,.84-1.91,1.55-2.64,1.68-6.38,1.16-9.94,4.63-9.72,11.39,.02,.48-.2,.97-.34,1.45-.86,3.01-2.01,3.51-4.64,1.89-2.4-1.47-4.72-3.06-7.56-4.92-.48,1.88-.83,3.43-1.27,4.95-.8,2.79-1.51,5.6-2.5,8.32-.85,2.32-2.89,3.43-5.18,2.85-1.14-.29-2.44-1.73-2.81-2.92-.71-2.3,.73-3.72,2.71-4.97,1.18-.75,2.06-2.32,2.56-3.71,.94-2.65,1.42-5.47,2.25-8.17,.93-3.05,2.01-3.46,4.71-1.76,1.96,1.24,3.76,2.74,5.65,4.09,.86,.61,1.78,1.15,3.15,2.03Z"/><path class="cls-1" d="M47.51,28.86c-1.5-.73-2.76-1.25-3.93-1.92-1.45-.84-2.59-.55-3.82,.52-4.78,4.15-4.8,4.13-7.41-1.73-1.18-2.66-1.62-2.8-4.05-1.22-.63,.41-1.19,.98-1.88,1.21-.86,.29-2.43,.69-2.62,.38-.59-.95-1.07-2.31-.83-3.34,.22-.96,1.25-2.09,2.2-2.47,4.85-1.96,8.17-2.63,9.95,3.35,.85,2.86,1.29,2.84,3.59,1.27,3.5-2.39,7.3-.84,8.79,3.97Z"/></svg>