<?xml version="1.0" encoding="utf-8"?>
<!-- Generator: Adobe Illustrator 26.5.0, SVG Export Plug-In . SVG Version: 6.00 Build 0)  -->
<svg version="1.1" id="Laag_1" xmlns="http://www.w3.org/2000/svg" xmlns:xlink="http://www.w3.org/1999/xlink" x="0px" y="0px"
	 viewBox="0 0 841.9 595.3" style="enable-background:new 0 0 841.9 595.3;" xml:space="preserve">
<style type="text/css">
	.st0{fill:#FFFFFF;}
</style>
<g>
	<path class="st0" d="M613.3,386.2c28.3,2.7,54.7,5.2,83.1,7.9c-1.9,17.7-3.6,34.5-5.6,53.7C513.4,430,337,429.6,159.2,448
		c-2-18.6-3.8-35.4-5.8-53.9c28.2-2.7,54.6-5.2,83.2-7.9c0-32.2,0.2-64.1,0-96c-0.5-58.7,21.1-107.5,65-146.4
		c23.6-20.9,51.1-34.9,81.8-41c12.4-2.5,15-7.9,14.5-19c-0.8-17.1-0.2-34.2-0.2-52.6c18.2,0,35,0,54,0c0,18.6,0.3,36.8-0.1,55
		c-0.2,8.8,1.8,13.2,11.8,15.9c96.7,25.5,149.3,94.1,150,194.3C613.5,326,613.3,355.5,613.3,386.2z"/>
	<path class="st0" d="M424.7,487.1c24.3,0,48.6-0.3,72.9,0.1c16.8,0.3,20.8,6.6,15.4,22.8c-16.2,48.7-84.6,73.2-132.5,47.3
		c-20.4-11-37.1-25.7-44.1-48.7c-4.7-15.5-0.8-21.1,15.4-21.4C376,486.8,400.4,487.1,424.7,487.1z"/>
</g>
</svg>
