<?xml version="1.0" encoding="utf-8"?>
<!-- Generator: Adobe Illustrator 26.5.0, SVG Export Plug-In . SVG Version: 6.00 Build 0)  -->
<svg version="1.1" id="Laag_1" xmlns="http://www.w3.org/2000/svg" xmlns:xlink="http://www.w3.org/1999/xlink" x="0px" y="0px"
	 viewBox="0 0 84.7 75.2" style="enable-background:new 0 0 84.7 75.2;" xml:space="preserve">
<style type="text/css">
	.st0{fill:#FFFFFF;}
</style>
<g>
	<path class="st0" d="M42.5,64.1c-7.6-0.4-15-0.6-22.5-1.1c-7.2-0.5-10.3-2.8-10.7-9.9c-0.6-9.2-0.4-18.6,0.1-27.8
		c0.3-5.9,3.1-8.9,8.7-9c16.3-0.3,32.6-0.3,48.9,0c5,0.1,8.5,3.3,8.7,8.6c0.3,9.6,0.5,19.3,0,28.8c-0.4,6.4-3.6,8.8-10.3,9.2
		C57.7,63.5,50.1,63.7,42.5,64.1z M35.6,49.5c6.1-3.5,11.6-6.5,17.7-10c-6.2-3.5-11.7-6.6-17.7-10C35.6,36.5,35.6,42.5,35.6,49.5z"
		/>
</g>
</svg>
