<?xml version="1.0" encoding="utf-8"?>
<!-- Generator: Adobe Illustrator 26.5.0, SVG Export Plug-In . SVG Version: 6.00 Build 0)  -->
<svg version="1.1" id="Laag_1" xmlns="http://www.w3.org/2000/svg" xmlns:xlink="http://www.w3.org/1999/xlink" x="0px" y="0px"
	 viewBox="0 0 66 95" style="enable-background:new 0 0 66 95;" xml:space="preserve">
<style type="text/css">
	.st0{fill:#FFFFFF;}
</style>
<g>
	<path class="st0" d="M48.5,50c-3.1,0.2-5.8,0.3-9,0.4c0,8.9,0,17.8,0,27.1c-4.3,0-8.1,0-12.4,0c0-8.9,0-17.8,0-27.1
		c-3.5,0-6.4,0-9.7,0c0-4,0-7.5,0-11.5c2.9,0,5.8,0,9.6,0c0-3.3,0-6.2,0-9.1c0.1-11.7,11.4-19.1,22.1-14.5c0.9,0.4,1.5,2.3,1.7,3.5
		c0.3,1.9,0.1,3.9,0.1,5.7c-12,2-12.4,2.4-11.3,13.9c1.7,0.1,3.4,0.2,5.2,0.2c1.6,0,3.2,0,5.4,0C49.5,42.7,49,46.1,48.5,50z"/>
</g>
</svg>
