<?xml version="1.0" encoding="UTF-8"?><svg id="Laag_1" xmlns="http://www.w3.org/2000/svg" viewBox="0 0 91 90.22"><defs><style>.cls-1{fill:#fff;}</style></defs><path class="cls-1" d="M0,36.21c.73-2.28,1.37-4.59,2.21-6.83C9.51,10.03,28.98-2.02,49.15,.28c21.17,2.42,37.39,18.55,39.98,39.76,0,.08,.06,.15,.15,.35,.59-2.13,1.16-4.16,1.72-6.19v22.01c-.54-2.05-1.08-4.1-1.71-6.48-.29,1.62-.45,2.9-.75,4.16-4.22,18.19-15.2,30.29-33.31,34.78-18.33,4.55-33.82-1.16-46.03-15.53-4.79-5.63-7.37-12.38-9.2-19.44,0-5.84,0-11.67,0-17.51Zm44.25,48.09c21.71,.07,39.29-17.41,39.32-39.11,.04-21.67-17.52-39.32-39.16-39.38-21.45-.06-39.43,17.95-39.3,39.36,.13,21.63,17.57,39.06,39.14,39.14Z"/><path class="cls-1" d="M26.64,60.47c-5.96,.52-10.62-1.93-12.5-6.45-2.18-5.23-.61-12.11,3.62-15.81,3.72-3.27,9.56-3.75,14.17-.63,3.35,2.26,6.44,4.98,9.33,7.82,.91,.9,1.38,2.99,1.03,4.25-.5,1.82-2.52,1.93-4.25,1.72-4.88-.6-9.03-2.73-12.49-6.22-.76-.77-1.53-2.43-2.65-1-.65,.82-.82,3.06-.22,3.65,1.85,1.83,4.19,3.15,6.3,4.73,.66,.49,1.52,1.07,1.71,1.76,1.35,4.83,3.91,6.62,8.65,6.08,0,1.95-.54,4.14,.15,5.84,.67,1.64,2.6,2.76,4.05,4.17-2,2.88-7.69,3.9-12.31,1.78-3.89-1.78-5.8-6.51-4.6-11.69Z"/><path class="cls-1" d="M52.32,69.13c2.61,.28,5.22,.57,8.12,.88-.38-2.49-.64-4.85-1.13-7.17-.41-1.91,.19-3.2,1.75-4.26,2.14-1.44,4.22-2.97,6.55-4.61-3.15-2.33-6.14-4.65-9.24-6.8-1.76-1.22-1.93-2.38-.76-4.13,2.35-3.53,4.56-7.15,7.15-11.25-3.62,0-6.8,0-9.98,0-6.25,0-5.56,.45-6.53-5.42-.3-1.8-.56-3.61-.91-5.83-2.37,1.63-4.65,3.05-6.76,4.7-2,1.56-3.69,1.51-5.53-.2-1.46-1.35-3.06-2.54-4.97-4.11-.38,2.57-.64,4.82-1.09,7.03-.16,.78-.82,1.45-1.25,2.18-.38-.8-1.07-1.59-1.1-2.4-.12-3.41-.1-6.83,0-10.25,.02-.72,.44-1.89,.93-2.04,.69-.21,1.81,.09,2.4,.58,2.74,2.3,5.35,4.73,8.12,7.22,3.14-2.87,6.15-5.72,9.29-8.41,.85-.73,2.14-.94,3.22-1.39,.43,1.09,1.16,2.16,1.25,3.28,.3,3.72,.38,7.46,.55,11.42,4.9-.7,9.55-1.38,14.21-2.04,1.84-.26,3.77-.51,4.87,1.49,1.05,1.91,.08,3.55-1.05,5.06-2.95,3.93-5.93,7.83-9.1,12.02,.84,.47,1.65,.95,2.48,1.38,3.04,1.55,6.12,3.03,9.13,4.64,2.54,1.35,2.62,3.72,.13,5.21-2.86,1.71-5.78,3.3-8.74,4.82-1.31,.67-1.75,1.41-1.47,2.93,.49,2.7,.72,5.44,1,8.18,.22,2.17-.55,2.81-2.59,2.13-2.6-.87-5.19-1.79-7.75-2.78-.62-.24-1.1-.84-1.64-1.28,.15-.27,.3-.53,.45-.8Z"/><path class="cls-1" d="M41.95,41.39c2.13-1.47,4.16-2.53,6.66-1.73,3.76,1.2,5.43,5.38,3.23,8.63-2.83,4.18-6.77,7.11-11.57,8.67-2.97,.97-4.9-.11-6.2-3.14,4.11,.29,8.71,1.6,11.02-3.16,1.78-3.67-.93-6.42-3.14-9.28Z"/><path class="cls-1" d="M52.3,54.03c3.19,.04,5.17,3.04,4.29,5.6-1.11,3.24-6.26,6.94-9.7,6.97-3.36,.03-5.18-2.66-3.5-5.57,2.1-3.66,5.25-6.15,8.91-7Z"/><path class="cls-1" d="M40.34,39.77c-3.61-2.27-7.01-4.41-10.57-6.65,1.59-.82,3.32-1.93,5.21-2.64,2.42-.91,5.1,.18,6.52,2.32,1.52,2.28,1.17,4.18-1.16,6.97Z"/></svg>