<?xml version="1.0" encoding="UTF-8"?><svg id="Laag_1" xmlns="http://www.w3.org/2000/svg" viewBox="0 0 91.08 90.02"><defs><style>.cls-1{fill:#fff;}</style></defs><path class="cls-1" d="M91.08,53.58c-.37-1.22-.74-2.44-1.19-3.95-3.68,27.03-26.29,42.03-47.95,40.25C16.97,87.82-.61,68.01,.02,43.26,.59,20.7,19.41,1.16,41.62,.06c24.9-1.23,45.19,15.62,48.21,40.51,.51-1.82,.88-3.16,1.26-4.5v17.5Zm-6.93-8.66c-.03-21.65-17.82-39.42-39.3-39.24C23.32,5.86,5.75,23.47,5.69,44.92c-.06,21.59,17.6,39.23,39.28,39.24,21.7,0,39.22-17.53,39.19-39.23Z"/><path class="cls-1" d="M68.08,35.02h-9.58v-5.89h-6.82v12.58c2.11-.5,4.31-1.11,6.54-1.54,3.47-.67,6.23,.7,8.23,3.46,.78,1.07,1.52,2.45,1.56,3.71,.18,4.91,.1,9.83,.06,14.75-.02,3.04-4.03,7.15-7.09,7.21-4,.07-8,.08-12,0-3.22-.07-6.97-4.01-6.98-7.23-.02-11.42-.02-22.83,0-34.25,0-3.05,4.03-7.13,7.03-7.15,4-.03,8-.03,12,0,2.53,.02,6.88,4,7.01,6.52,.13,2.56,.03,5.13,.03,7.83Zm-9.59,25.95v-12.43h-6.83v12.43h6.83Z"/><path class="cls-1" d="M25.43,28.26h-5.93c-.83-4.47-.77-4.32,3.12-5.92,3.9-1.61,7.87-1.94,12.18-1.55v48.4h-9.37V28.26Z"/></svg>