<?xml version="1.0" encoding="UTF-8"?><svg id="Laag_1" xmlns="http://www.w3.org/2000/svg" viewBox="0 0 89.81 90.12"><defs><style>.cls-1{fill:#fff;}</style></defs><path class="cls-1" d="M.24,50.69c-.47-4.88-1.07-18.14,7.03-30.38,3.65-5.51,8.02-9.25,10.68-11.24C28.43,1.24,40.27-1.49,53.12,.76c19.48,3.42,34.13,19.28,36.67,39.45,0,3.26,.02,6.52,.02,9.78-1.43,11.01-5.99,20.42-14.07,27.97-8.1,7.56-17.78,11.65-28.82,12.11-5.81,.24-11.3-.52-16.46-2.28-1.97-.67-8.32-2.99-14.83-8.59-5.49-4.73-8.52-9.56-9.63-11.46C2.09,61.04,.75,54.7,.24,50.69Zm83.93-5.52c.05-21.67-17.46-39.3-39.14-39.4C23.61,5.66,5.6,23.67,5.7,45.1c.09,21.6,17.55,39.07,39.12,39.16,21.71,.08,39.3-17.39,39.35-39.08Z"/><path class="cls-1" d="M37.89,13.02c-.62,1.24-1.18,2.5-1.86,3.7-.98,1.74-1.84,3.61-3.11,5.12-3.77,4.47-3.98,9.55-2.72,14.84,.28,1.19,1.3,2.53,2.36,3.13,3.01,1.7,6.21,3.06,9.34,4.55,.15-.21,.3-.42,.46-.62-1.39-1.43-2.72-2.93-4.19-4.29-2.43-2.24-3.31-4.93-1.74-7.85,1.83-3.4,3.97-6.64,6.17-9.82,1.13-1.64,2.64-1.41,4.05-.08,3.5,3.29,6.02,7.21,6.68,11.97,.21,1.49-.59,3.39-1.5,4.7-1.38,1.99-3.26,3.63-4.93,5.41,.14,.21,.27,.42,.41,.63,3.56-1.73,7.11-3.45,10.66-5.2,.27-.13,.56-.45,.63-.73,1.03-4.21,2.12-8.52,.06-12.65-1.67-3.34-3.82-6.44-5.71-9.68-.58-.98-1.01-2.05-1.5-3.08,.13-.25,.27-.5,.4-.75,1.37,.45,2.95,.6,4.08,1.39,8.28,5.77,11.03,16.64,6.44,25.67-.64,1.27-2.05,2.43-3.38,3.02-2.65,1.17-5.5,1.9-8.26,2.83-.82,.28-1.62,.63-2.76,1.07,6.98,1.58,16.45-1.22,20.67-6.08,.81-.93,1.16-2.36,1.46-3.62,.85-3.54,1.56-7.11,2.33-10.67,.26-.04,.53-.08,.79-.12,.65,1.46,1.54,2.86,1.92,4.39,1.01,4.04,.18,7.93-1.41,11.68-.25,.59-.67,1.24-1.2,1.56-4.48,2.77-9.01,5.41-14.54,5.32-3.05-.05-6.1,0-9.14,0-.03,.34-.07,.68-.1,1.02,2.86,.62,5.85,.9,8.55,1.94,3.28,1.26,6.55,2.83,9.41,4.84,2.79,1.96,3.78,9.31,2.1,12.34-.35,.62-1.17,1.19-1.87,1.32-.32,.06-1.09-.94-1.24-1.57-.6-2.51-.92-5.08-1.6-7.57-.3-1.11-.99-2.29-1.85-3.03-4.01-3.45-8.93-4.94-14.23-5.76,1.73,1.28,3.38,2.7,5.21,3.82,6.52,4.01,6.78,14.86,.02,20.22-.69,.55-1.67,.72-2.52,1.07-.22-.19-.44-.37-.66-.56,.85-2.45,1.63-4.93,2.57-7.35,2.51-6.52,.35-11.11-4.91-14.66-.17,1.55-.34,3.05-.51,4.55l-.67,.11c-.55-1.59-1.1-3.18-1.65-4.77-.2,0-.39,0-.59,0-.48,1.58-.96,3.16-1.44,4.74-.27,0-.53,0-.8,0-.2-1.45-.4-2.9-.6-4.34-4.42,1.68-7.08,8.15-5.35,13.16,.71,2.04,1.59,4.03,2.32,6.06,.29,.81,.38,1.7,.66,2.97-4.5-.55-6.06-3.86-7.16-6.83-3.38-9.1,2.51-13.97,9.28-18.31-5.76,.87-10.88,2.78-15.07,6.64-.6,.55-.84,1.59-1.03,2.45-.55,2.43-.92,4.91-1.53,7.33-.17,.65-.99,1.65-1.43,1.61-.66-.06-1.49-.78-1.82-1.43-1.84-3.61,.02-10.64,3.27-13.19,3.67-2.88,7.94-4.08,12.42-4.83,1.45-.24,2.87-.63,4.31-.95,0-.21,0-.41-.01-.62-2.38-.14-4.78-.52-7.15-.38-5.98,.36-11.05-1.92-15.92-4.97-.42-.26-.84-.55-1.16-.92-2.5-2.96-3.54-13.86,.69-17.16,.74,3.32,1.71,6.42,2.07,9.59,.71,6.14,5.34,8.54,10.07,10.16,3.67,1.26,7.84,1.05,11.79,1.5,.07-.25,.14-.5,.21-.74-.68-.3-1.34-.65-2.04-.89-2.44-.83-4.87-1.76-7.36-2.38-3.02-.76-4.54-2.76-5.54-5.52-3.21-8.89-.46-18.16,7.26-23.66,1.15-.82,2.73-1.04,4.11-1.54,.17,.25,.35,.51,.52,.76Z"/></svg>