<?xml version="1.0" encoding="utf-8"?>
<!-- Generator: Adobe Illustrator 26.5.0, SVG Export Plug-In . SVG Version: 6.00 Build 0)  -->
<svg version="1.1" id="Laag_1" xmlns="http://www.w3.org/2000/svg" xmlns:xlink="http://www.w3.org/1999/xlink" x="0px" y="0px"
	 viewBox="0 0 841.9 239.1" style="enable-background:new 0 0 841.9 239.1;" xml:space="preserve">
<style type="text/css">
	.st0{fill:#CE2E26;}
</style>
<g>
	<path class="st0" d="M45.7,84.4c0.1-17.6,0.5-35.1,0.3-52.7c0-5.9,1.4-8.3,7.9-8.4c22-0.5,22-0.7,29.5,20
		c10.5,29.1,21,58.3,32,88.9c3.4-4.3,2.4-8,2.4-11.3c0.1-29.4,0.3-58.8,0-88.3c-0.1-6.9,1.9-9.3,9.1-9.3c22.9,0,22.9-0.3,23,22.6
		c0.1,18.3,0.3,36.5,0.4,54.8c-0.2,34.5-0.6,69-0.2,103.4c0.1,8.4-2.8,10.8-10.5,11.8c-24.5,3.1-24.5,3.4-32.4-20
		c-8.8-26.2-17.6-52.4-28-78.6c-0.2,2.3-0.5,4.6-0.5,6.9c0,29.8-0.2,59.5,0.1,89.3c0.1,7-1.6,10.2-9.2,11.1
		c-23.6,2.9-23.5,3.2-23.5-20.5C46,164.2,45.8,124.3,45.7,84.4z"/>
	<path class="st0" d="M714.8,145.4c3.4-7.3,6.5-14.8,10.3-21.9c2.5-4.7,0.2-8.5-1.3-12.5c-11.1-28.6-22.2-57.2-33.9-87.5
		c11.2,0,21.1,0.1,31,0c4.7,0,4.9,3.9,6.1,6.8c5.7,14.3,11.4,28.7,18.2,46c5.9-13.8,10.7-25,15.4-36.2c7-16.6,7-16.6,25.2-16.6
		c5.1,0,10.1,0,16.4,0c-9.8,24.3-19.2,47.6-28.6,70.9c-3.3,7.4-6.5,14.8-10,22.1c-1.8,3.8-0.5,7.2,0.9,10.7
		c10.7,28.4,21.4,56.8,32.1,85.2c1.6,4.4,3.1,8.8,4.9,14.1c-11.5,0.2-21.8-3.1-32.3-4.5c-4.3-0.6-4.2-4.9-5.4-7.8
		c-6.5-16.2-12.7-32.5-20.1-51.4c-7,16.4-13.6,30.4-19,44.7c-3,8-7.2,10.6-15.2,8c-2.2-0.7-4.7-0.8-7-1
		c-16.4-1.5-16.2-1.4-10.3-16.4C699.1,180.2,709.2,163.8,714.8,145.4z"/>
	<path class="st0" d="M180.3,100.6c0.2-21.9,0.8-43.9,0.5-65.8c-0.1-8.4,1.5-11.9,11-11.6c23,0.8,46,0.4,69,0.1
		c6.2-0.1,8.9,1.1,8.9,8.2C269.8,55,270.1,55,246.3,55c-7.8,0-15.6,0.4-23.3-0.1c-7.9-0.6-11.3,2.2-10.2,10.3
		c0.6,4.3,0.4,8.8,0.5,13.1c-1.4,20.1-1.4,20.1,17.8,19.8c1.7,0,3.4,0,5.1-0.1c19.4-0.3,18.7-0.3,19.6,19
		c0.5,10.7-3.2,13.2-13.1,12.8c-9.6-0.3-22.2-4.1-28.3,2.6c-5.5,6-1.4,18.1-1.6,27.6c-0.2,17.3-0.1,17.2,16.7,16.3
		c10.8-0.6,21.7-0.8,32.4-1.8c6.1-0.6,7.3,1.8,7.5,7.3c0.7,22.3,0.9,23.2-25.2,26.1c-17.9,1.9-36,1.8-53.9,4.4
		c-7.8,1.2-9.6-3.4-9.5-10.4c0.3-29.8,0.1-59.5,0.1-89.3C181,108.7,180.5,104.6,180.3,100.6z"/>
	<path class="st0" d="M408.1,84.4c0.2-16.9,0.7-33.8,0.5-50.6c-0.1-7.5,1.5-10.7,10-10.5c23.7,0.6,47.3,0.4,71,0.1
		c6.6-0.1,8.9,1.8,8.8,8.5c-0.4,27.1,2.7,22.9-22.1,23.2c-9.5,0.1-18.9,0.2-28.4,0c-5.6-0.1-8,1.7-7.6,7.6
		c0.7,10.4-4.1,23.4,1.9,30.5c5.8,7,19.1,1.5,29,2.5c4.9,0.5,11.4-2.7,13.5,5.1c-0.2,1.7-0.6,3.3-0.6,5c-0.8,21.7-0.7,21.7-23,21.7
		c-20.8,0-20.8,0-20.8,20.7c0,14.9-0.2,29.8,0.1,44.7c0.1,5.7-1.7,7.4-7.5,7.6c-24.2,0.8-24.1,1-24.2-22.7
		C408.6,146.6,408.3,115.5,408.1,84.4z"/>
	<path class="st0" d="M322.7,84.4c0.1-0.7,0.4-1.3,0.4-2c1.6-26.3,1.6-26.5-24.2-27.3c-6.3-0.2-8.8-1.9-8.9-8.7
		c-0.4-23-0.7-23,22.5-23c22.6,0,45.3,0.2,67.9-0.1c6.3-0.1,8.2,2,8.1,8.1c-0.3,27.7,2.6,23.7-21.6,23.3
		c-9.9-0.2-13.6,2.7-12.1,12.5c0.6,3.6,0.3,7.4,0.4,11.1c-0.1,37.1-0.5,74.2-0.1,111.4c0.1,9.4-1.9,12.9-12,12.7
		c-19.7-0.5-19.6,0.1-19.7-19.8C323.2,149.8,322.9,117.1,322.7,84.4z"/>
	<path class="st0" d="M517.4,100.7c0.1-22.6,0.6-45.2,0.3-67.8c-0.1-7.6,2.2-9.7,9.7-9.6c22.7,0.2,22.6-0.1,22.7,22.7
		c0,11.5,0.2,22.9,0.3,34.4c-0.1,28.1,0,56.1-0.5,84.2c-0.1,6.5,2.6,8,8.3,8.1c12.2,0.3,24.3,1.3,36.5,1.4c7,0.1,10.1,1.9,10.1,9.9
		c-0.1,22.4,0.3,21.6-22.3,22c-18.2,0.3-36.2-4.4-54.4-1.7c-8.1,1.2-10.5-2.4-10.5-10.3C517.9,162.9,517.6,131.8,517.4,100.7z"/>
	<path class="st0" d="M631.1,82.4c0.1-16.9,0.5-33.7,0.2-50.5c-0.1-6.7,2-8.5,8.6-8.5c22.4-0.1,22.4-0.4,22.5,21.9
		c0.1,33.4,0.3,66.7,0.4,100.1c-0.2,18.9-0.6,37.8-0.4,56.7c0.1,6.6-2,8.6-8.7,8.5c-22.3-0.5-22.3-0.3-22.3-22.8
		C631.3,152.7,631.2,117.5,631.1,82.4z"/>
</g>
</svg>
