<?xml version="1.0" encoding="utf-8"?>
<!-- Generator: Adobe Illustrator 26.5.0, SVG Export Plug-In . SVG Version: 6.00 Build 0)  -->
<svg version="1.1" id="Laag_1" xmlns="http://www.w3.org/2000/svg" xmlns:xlink="http://www.w3.org/1999/xlink" x="0px" y="0px"
	 viewBox="0 0 841.9 595.3" style="enable-background:new 0 0 841.9 595.3;" xml:space="preserve">
<style type="text/css">
	.st0{fill:#FFFFFF;}
</style>
<g>
	<path class="st0" d="M525.1,341.4c47.1,27.4,96.4,56,145.7,84.6c27.4,15.9,54.6,32.4,82.4,47.6c12.4,6.8,14.6,15.7,8.8,26.7
		c-10.3,19.5-21.7,38.4-33.5,58.9c-15.9-9.1-30.1-17.1-44.2-25.3c-63.7-37-127.5-73.7-190.8-111.2c-11.3-6.7-17.5-5.6-27.2,3.6
		c-66.9,63.7-146.1,84.2-233.6,55.1c-89-29.6-141.7-94.3-156-187c-20.1-129.8,80.6-252,212.5-260.7c132.8-8.7,246.1,97.3,244.5,230
		C533.5,288.9,528.3,313.9,525.1,341.4z M305.4,120.4c-80.1-0.2-144.6,63.7-144.5,143.3c0.1,78.5,64.5,143,143,143.2
		c79.7,0.2,144.8-64.5,144.6-143.6C448.4,184.6,384.3,120.6,305.4,120.4z"/>
</g>
</svg>
