<?xml version="1.0" encoding="utf-8"?>
<!-- Generator: Adobe Illustrator 26.5.0, SVG Export Plug-In . SVG Version: 6.00 Build 0)  -->
<svg version="1.1" id="Laag_1" xmlns="http://www.w3.org/2000/svg" xmlns:xlink="http://www.w3.org/1999/xlink" x="0px" y="0px"
	 viewBox="0 0 95 94" style="enable-background:new 0 0 95 94;" xml:space="preserve">
<style type="text/css">
	.st0{fill:#FFFFFF;}
</style>
<g>
	<path class="st0" d="M13,41c1.9,0.4,3.1,0.7,5.1,1.1c-4.7-5.6-6.8-11.1-3.2-18.3C22.6,32,31.5,37.2,43,38c0.2-2,0.3-3.7,0.6-5.4
		c1.5-8.9,10.9-14.4,18.8-10.3c4.5,2.3,8.4,3.4,13.4,1.3c-1.1,1.7-2.2,3.4-3.5,5.4c1.8-0.2,3.3-0.4,6.5-0.8
		c-7.1,4.5-7.2,10.6-8.4,16.8c-4.9,24.7-31.2,38.2-54.4,28.4c-1.4-0.6-2.8-1.4-4-2.1c6-1.7,11.7-3.4,17.6-5
		c-4.7-3.6-8.5-6.6-12.3-9.5c0.3-0.5,0.5-0.9,0.8-1.4c1.2-0.2,2.4-0.5,4.1-0.8C16.9,51.3,13.1,47.6,13,41z"/>
</g>
</svg>
